<?xml version="1.0" encoding="UTF-8" standalone="no"?>
<svg
   xmlns:dc="http://purl.org/dc/elements/1.1/"
   xmlns:cc="http://creativecommons.org/ns#"
   xmlns:rdf="http://www.w3.org/1999/02/22-rdf-syntax-ns#"
   xmlns:svg="http://www.w3.org/2000/svg"
   xmlns="http://www.w3.org/2000/svg"
   xmlns:sodipodi="http://sodipodi.sourceforge.net/DTD/sodipodi-0.dtd"
   xmlns:inkscape="http://www.inkscape.org/namespaces/inkscape"
   width="256"
   height="256"
   viewBox="0 0 256 256"
   version="1.1"
   preserveAspectRatio="xMinYMin meet"
   id="svg2"
   inkscape:version="0.91 r13725"
   sodipodi:docname="Browserify.svg"
   inkscape:export-filename="/home/alexem/Projects/talks/mjst2017-pimp-my-fb-loop/src/assets/img/browserify.png"
   inkscape:export-xdpi="90"
   inkscape:export-ydpi="90">
  <metadata
     id="metadata22">
    <rdf:RDF>
      <cc:Work
         rdf:about="">
        <dc:format>image/svg+xml</dc:format>
        <dc:type
           rdf:resource="http://purl.org/dc/dcmitype/StillImage" />
        <dc:title></dc:title>
      </cc:Work>
    </rdf:RDF>
  </metadata>
  <defs
     id="defs20" />
  <sodipodi:namedview
     pagecolor="#ffffff"
     bordercolor="#666666"
     borderopacity="1"
     objecttolerance="10"
     gridtolerance="10"
     guidetolerance="10"
     inkscape:pageopacity="0"
     inkscape:pageshadow="2"
     inkscape:window-width="1366"
     inkscape:window-height="656"
     id="namedview18"
     showgrid="false"
     height="256px"
     inkscape:zoom="1.0925926"
     inkscape:cx="241.36487"
     inkscape:cy="108"
     inkscape:window-x="0"
     inkscape:window-y="25"
     inkscape:window-maximized="1"
     inkscape:current-layer="svg2" />
  <g
     id="g4"
     transform="matrix(0.97132092,0,0,0.97132092,4.010062,28.000194)">
    <path
       d="M 110.58222,0.00868985 C 106.15499,0.09078352 100.61486,2.8520008 96.652575,1.8981371 95.071009,1.5174303 93.137933,1.3533009 91.24554,1.455926 c -0.03338,0.00193 -0.06712,-0.00193 -0.100503,0 -1.924206,0.1143188 -3.801992,0.519963 -5.185929,1.3668342 -0.05718,0.034991 -0.122771,0.06737 -0.180905,0.1005025 -0.05512,0.080441 -0.113129,0.1533299 -0.180905,0.2211055 -1.838954,1.8389484 -5.906608,2.0071108 -7.798994,3.8994975 -1.545707,1.5457062 -2.977949,4.5052853 -4.683418,7.1557793 -0.01621,0.02521 -0.02393,0.05525 -0.0402,0.0804 -6.068074,7.074695 -10.910327,15.77975 -12.623115,22.894472 -1.407318,5.84585 -1.387919,13.741405 -3.698493,19.557789 -0.646207,1.626668 -3.325362,10.631056 -1.246231,12.381909 1.416156,1.192562 7.452887,2.10571 9.226131,0 0.954307,-1.133333 9.705095,-3.965813 12.442211,-7.21608 3.223091,-3.827464 4.886133,-10.438419 7.095477,-16 0.351576,-0.884988 0.804258,-1.824084 1.326633,-2.753769 1.253436,2.427819 2.248407,4.410057 2.77387,5.628141 1.093789,2.535468 2.297297,6.041677 3.296482,9.788945 -2.165342,3.317117 -1.263109,7.855668 0.301508,9.929648 -6.331491,1.971238 -3.315348,8.782665 -3.557789,9.025125 -0.416971,0.417094 -1.737861,0.974093 -2.271357,1.507538 -0.660486,0.660493 -0.763819,2.03796 -0.763819,3.035176 0,0.962181 0.121561,1.817182 0.301507,2.572864 -5.76081,14.492064 -11.198398,32.631897 -18.070351,42.412067 -1.977915,0.90215 -4.00139,1.67665 -6.37186,2.15075 -4.619005,1.15506 -16.294535,3.44375 -26.130654,6.75377 -0.426915,0.56739 -0.924372,1.12538 -1.487437,1.68844 -0.974621,0.97461 -2.924878,0.97513 -3.899498,1.94975 -0.758036,0.75804 -3.12136,-0.0947 -3.879397,0.66332 -2.249346,2.24933 -5.569318,3.41781 -9.105527,5.18593 -0.392304,0.19614 -1.649393,-0.30036 -1.949749,0 -1.606407,1.6064 -4.482714,2.53296 -5.8492464,3.89949 -2.6735662,2.67357 -4.9148912,5.57821 -7.798995,8.46232 -2.8662673,2.86626 2.9790875,10.75798 3.8994975,11.67839 2.7084479,2.70844 7.6835119,3.1408 10.3919599,5.84924 1.139451,1.13945 4.959736,-0.38436 6.331658,0.52262 0.354316,0.0498 0.671158,0.11447 0.884422,0.2211 3.990526,1.99526 11.818311,3.47043 16.542714,5.04523 6.510879,2.17029 11.675479,7.96912 18.391961,9.64824 5.113073,1.27827 10.919944,1.95823 16.080402,3.67839 2.157495,0.71916 4.777597,0.2257 6.874372,0.92462 3.921392,1.30713 7.462052,2.92956 11.035176,4.12061 1.237567,0.41252 2.872809,-0.31698 4.140703,0 2.852902,0.71322 5.936958,0.92035 8.723618,1.84924 4.96195,1.65399 11.58076,-1.65398 16.54271,0 3.27009,1.09003 23.62909,-0.65421 25.26633,-2.29145 1.20365,-1.20365 5.78117,0.32549 7.35679,-0.46232 1.36753,-0.68377 5.52048,-0.0129 6.43216,-0.92462 2.35462,-2.35463 7.18814,-2.45838 10.55276,-4.1407 1.41534,-0.70767 3.59672,0.27199 5.06533,-0.46231 0.84473,-0.42237 2.56087,0.0973 4.42211,0.90452 3.54191,-0.0744 6.26784,-0.44221 9.80905,-0.44221 4.21011,0 10.02209,-1.99896 16.1809,-5.02513 6.81599,-1.53535 15.14732,-3.30812 15.53769,-3.69849 2.96133,-2.96133 10.83255,-2.10893 13.76884,-5.04523 2.08016,-2.08016 4.75303,-2.92388 6.89447,-5.06532 1.90777,-1.90778 4.52877,-4.09222 7.27639,-6.39196 0.47855,-1.33374 1.70331,-2.58774 2.83417,-3.7186 0.47418,-0.47418 3.82084,-10.26787 3.21608,-11.47738 -1.10747,-2.21494 -2.93734,-4.04683 -5.04523,-5.74875 -0.65396,-0.22399 -1.15545,-0.45193 -1.38693,-0.68341 -2.25165,-2.25165 -7.64674,-2.60151 -9.64824,-4.60302 -3.2229,-3.2229 -8.06847,-6.11936 -13.84925,-8.0603 -1.2108,-0.60012 -2.34407,-1.23855 -3.15578,-2.05025 -1.02961,-1.0296 -6.98018,-2.34436 -8.72362,-3.21608 -0.93776,-0.46889 -2.9786,0.25758 -3.67839,-0.44221 -1.69735,-1.69735 -8.81118,-2.90672 -13.94975,-4.54272 -0.74927,0.0475 -1.95156,-0.52442 -2.17085,-0.74372 -0.1546,-0.1546 -4.13793,-0.74094 -5.44724,-2.05025 -0.14864,-0.14864 -0.68342,-5.48568 -0.68342,-6.15075 0,-0.24521 -0.59508,-1.23406 -0.2412,-1.58794 0.0551,-0.0551 0.10886,-0.11983 0.1608,-0.1809 -2.37833,-14.655769 -4.19683,-30.839169 -5.90955,-32.281414 -2.54334,-2.141813 -3.95633,-13.965848 -6.75376,-16.321608 -2.92486,-2.462938 -4.75538,-5.156193 -7.01508,-7.256281 -0.001,-0.0064 10e-4,-0.0137 0,-0.02007 -0.85016,-4.672457 -2.46448,-9.921969 -2.97487,-10.351759 -0.82895,-0.698115 0.42694,-3.864693 -0.40201,-4.562814 -2.58027,-2.172784 -5.94163,-14.946882 -8.36181,-16.984925 -3.16969,-2.669282 -4.72894,-6.812186 -7.7387,-9.346733 C 141.1754,9.6455654 128.82171,0.32627136 115.16514,1.0338476 114.57807,0.86834171 114.00643,0.66936281 113.45659,0.45093307 112.58837,0.10600844 111.60391,-0.01022714 110.58222,0.00872201 l 0,-3.216e-5 z"
       id="path6"
       inkscape:connector-curvature="0"
       style="fill:#3c6991" />
    <path
       d="m 107.63375,81.112423 c -1.14708,-0.20682 -2.26858,-0.218809 -3.14848,0.07311 -1.46522,0.486323 -3.82752,-0.665195 -5.357439,-0.389049 -5.784493,1.044094 -10.319585,2.611264 -11.100578,4.555848 8.58534,-2.461382 18.116627,3.032423 22.021397,8.252758 1.62313,2.169787 -0.88054,5.458506 0.003,8.12074 0.20002,0.6027 0.36,4.46218 -0.33498,4.98199 -1.4526,1.08661 -1.30843,4.87841 -2.50969,6.60875 -2.82735,4.0729 -5.29318,7.04857 -7.694841,10.50828 -2.476717,3.56782 -9.098948,4.28248 -12.795028,5.50926 -0.816685,0.27109 -1.844841,-0.29253 -2.705708,-0.007 -0.203443,0.0676 -0.440584,0.0792 -0.677371,0.0461 0.08311,0.0937 0.179129,0.18353 0.24767,0.27524 0.311722,0.41661 1.831996,0.0197 2.276297,0.32814 2.872069,1.99381 14.236911,1.22892 17.387951,0.1831 1.96063,-0.6508 3.7791,-1.61189 5.7397,-2.2626 2.51438,-0.8346 4.98912,-4.74446 6.79484,-6.75752 6.21082,-6.92377 9.04897,-18.91584 5.97726,-28.170209 -1.54403,-4.651951 -5.58608,-7.440197 -9.02692,-9.828824 -1.17645,-0.816731 -3.18525,-1.683625 -5.0972,-2.028305 l -1e-4,-1.3e-5 z"
       id="path8"
       inkscape:connector-curvature="0"
       style="fill:#e6b35a;stroke:#ffffff;stroke-width:1.17950344;stroke-opacity:0" />
    <path
       d="m 121.4865,72.175186 c -0.36974,-0.01177 -0.42169,3.608552 -0.45038,5.334449 -0.17375,0.01023 -0.16596,0.227685 -0.11917,0.474159 -1.86668,0.828951 -5.93005,2.489092 -5.61901,2.821332 0.0147,0.0075 0.0162,0.01795 0.0235,0.02367 -0.14712,0.0075 -0.30147,0.05725 -0.30824,0.260798 -0.0147,0.268093 0.53807,0.01473 0.80614,0.02367 0.43242,0.01473 4.21198,1.408058 5.71376,2.038938 0.18627,1.427798 0.73493,2.280233 0.73493,3.911918 0,1.01722 0.20054,2.41828 0.26086,2.41828 0.0221,0 0.0633,-0.03132 0.0942,-0.04753 0.0441,0.176479 0.0942,0.280809 0.16597,0.213374 0.29515,-0.276325 0.83085,-1.017143 1.37509,-1.849265 0.0235,-0.03576 0.0486,-0.05873 0.0706,-0.09476 0.95813,-1.186489 2.05221,-2.705605 2.98724,-4.077881 1.81252,0.263732 3.47292,0.474179 3.88813,0.474179 0.19936,0 7.08694,1.183473 5.09741,-0.806097 -0.12065,-0.121388 -0.26204,-0.224476 -0.40299,-0.331932 0.0441,-0.03499 0.0692,-0.07091 0.0706,-0.11859 0.0147,-0.384058 -3.83031,-2.151525 -4.45723,-2.821326 -0.30251,-0.323106 -0.74082,-0.530428 -1.04318,-0.853522 -0.0795,-0.08489 0.0706,-0.322032 0.30824,-0.66385 l 0,-0.02367 c 0.53454,-0.59046 1.10511,-1.200081 1.51724,-1.612202 0.19759,-0.19757 1.3105,-2.279661 0.25483,-2.142591 -0.71226,0.09255 -3.03873,0.2397 -6.08571,1.13197 0,0 -0.82277,-1.075953 -0.82836,-1.072956 -0.66165,-0.270697 -2.53597,-2.560488 -4.05688,-2.610723 l 0.002,1.6e-4 z"
       id="path10"
       inkscape:connector-curvature="0"
       style="fill:#e6b35a;stroke:#ffffff;stroke-width:1.17950344;stroke-opacity:0" />
    <path
       d="m 104.28068,71.638043 c -0.21952,0.105938 -0.55249,0.536841 -0.65827,0.317421 -0.10594,-0.219427 0.87764,-0.423217 0.65827,-0.317421 -0.65474,0.315703 -3.18704,2.596979 -2.25393,3.317972 0.76774,0.593245 3.61447,-0.516303 4.82243,-0.09431 0.18052,0.06297 2.18683,3.141448 2.5011,2.242174 0.51232,-1.466796 -0.12211,-3.960314 -0.10593,-4.005532 0.23629,-0.676618 2.08914,-0.398909 2.54187,-0.617256 0.37415,-0.180332 1.13277,-0.500061 1.23724,-0.799401 0.028,-0.08136 0.0486,-0.32148 0.0853,-0.243914 0.0309,0.06284 -0.49452,-0.446476 -1.1344,-0.669993 -0.95636,-0.334132 -1.92435,-0.124778 -2.60955,-0.364292 -0.31618,-0.110498 0.0647,-1.969541 -0.05,-2.207042 -0.37666,-0.781038 -0.61546,-1.696978 -0.54969,-1.560442 0.18701,0.387885 -0.80938,0.379291 -1.0726,0.720035 -0.3278,0.424246 -1.18707,1.862426 -1.74264,1.854456 -0.66578,-0.01035 -3.3327,-0.644695 -3.51177,-0.132129 -0.0147,0.02882 1.66217,1.688423 1.84269,2.559582 l -1.2e-4,9e-5 z"
       id="path12"
       inkscape:connector-curvature="0"
       style="fill:#e6b35a;stroke:#ffffff;stroke-width:0.8033945;stroke-opacity:0" />
    <path
       d="m 130.06077,97.512188 c -0.17847,-0.165744 -0.70123,-0.318752 -0.53556,-0.497245 0.16582,-0.178537 0.71418,0.662995 0.53556,0.497245 -0.53262,-0.494582 -3.58003,-2.021004 -3.91122,-0.889253 -0.2725,0.931229 1.7984,3.177507 1.84577,4.456295 0.0147,0.19103 -2.12813,3.18155 -1.17617,3.14626 1.55269,-0.0576 3.64345,-1.55709 3.69126,-1.55886 0.71624,-0.0266 1.13307,1.8 1.5015,2.14207 0.30426,0.28256 0.87853,0.87241 1.1953,0.86065 0.0868,-0.003 0.31677,-0.0726 0.25822,-0.0103 -0.0471,0.0514 0.23541,-0.62331 0.2104,-1.30057 -0.0383,-1.0124 -0.58515,-1.8375 -0.61207,-2.56287 -0.0147,-0.33462 1.85755,-0.6579 2.03675,-0.85119 0.59001,-0.63542 1.35599,-1.191721 1.25284,-1.080631 -0.29309,0.315571 -0.64827,-0.615371 -1.06156,-0.736341 -0.51452,-0.150577 -2.16697,-0.426426 -2.36207,-0.946666 -0.2338,-0.623534 -0.61457,-3.338459 -1.1572,-3.31832 -0.0309,6.44e-4 -0.96637,2.16331 -1.71175,2.648976 l 0,7.4e-4 z"
       id="path14"
       inkscape:connector-curvature="0"
       style="fill:#e6b35a;stroke:#ffffff;stroke-width:0.8033945;stroke-opacity:0" />
    <path
       d="m 188.69278,121.55643 c -0.51937,1.7864 -3.77524,7.51393 -5.14573,8.88442 -1.76272,1.76271 -3.2787,3.60031 -4.82412,5.14573 -1.09514,1.09513 -4.22098,3.89937 -5.14573,4.82412 -2.01075,2.01074 -3.18883,1.25918 -5.46734,3.53769 -1.12939,1.12939 -3.40278,1.15153 -4.50251,2.25125 -0.99472,0.99472 -8.97491,1.59299 -10.93468,2.57287 -0.47427,0.23714 -1.8907,-0.36055 -2.25125,0 -1.40795,1.40795 -12.53369,1.92062 -12.86432,2.25125 -1.70343,1.70343 -6.23824,-0.25776 -8.68342,0.96483 -2.16839,1.0842 -6.47293,0.32161 -9.00502,0.32161 -1.40225,0 -5.12799,-0.0266 -8.96483,-0.12061 -0.90576,-0.1282 -1.61924,-0.23 -1.64824,-0.201 -0.0194,0.0194 -0.1063,0.10837 -0.1608,0.1608 -0.72066,-0.0222 -1.41465,-0.0524 -2.11056,-0.0804 -0.43323,-0.16495 -0.89299,-0.26707 -1.26633,-0.0804 -0.0173,0.009 -0.042,0.0117 -0.0603,0.0201 -2.99387,-0.14471 -5.43719,-0.35679 -6.050249,-0.66332 -2.516635,-1.25832 -5.219403,-1.60804 -8.361809,-1.60804 -4.918384,0 -15.808862,-5.81398 -19.618091,-7.71859 -0.583397,-0.2917 -2.20131,-1.98788 -3.075377,-2.45226 -0.0069,-0.3366 -0.01885,-0.64198 -0.140703,-0.76382 -0.896225,-0.89623 -1.288625,-2.89886 -1.929648,-4.18091 -0.266723,-0.53344 0,-2.48879 0,-2.25125 0,0.0105 0.646432,-2.57287 0.643216,-2.57287 -0.551063,0 -3.433314,3.75492 -4.502513,4.82412 -0.01,0.01 0.02013,0.0681 0.0402,0.12061 -0.602571,0.8305 -1.025125,2.06988 -1.025125,3.93969 0,6.37434 3.515877,6.71186 6.81407,10.01005 0.80979,0.80979 2.543437,0.27208 3.175879,0.90453 0.645725,0.64572 1.593472,1.21926 2.713568,1.72864 -1.400969,0.82137 -4.100174,1.0248 -4.984924,1.90955 -0.865312,0.86531 -4.877309,3.35323 -6.37186,4.1005 -0.280989,0.1405 -1.640458,0.29372 -1.809045,0.46231 -8.495997,8.496 -18.084206,13.98371 -25.929649,21.82915 -0.660493,0.66049 -0.904523,9.28687 -0.904523,10.91457 0,2.84172 -0.965133,5.84894 0.904523,7.71859 0.788769,0.78878 3.404105,0.22823 4.100502,0.92463 0.150969,0.15097 2.052747,1.56534 2.271357,1.34673 0.829969,-0.82997 -0.462312,-5.16925 -0.462312,-6.35176 0,-6.21059 0.670271,-12.48936 4.562816,-16.38191 7.506035,-7.50603 18.208103,-10.93172 25.005025,-17.72864 1.997951,-1.99796 5.658777,-3.06192 8.321608,-5.24623 -0.09336,0.64054 0.0155,1.24401 0.482412,1.74874 0.31039,0.33554 1.416375,-0.3288 1.809045,-0.1206 2.67071,1.41612 10.809825,4.45222 13.20603,1.52764 0.434538,0.82621 0.778935,1.66336 1.20603,2.09045 1.595446,1.59544 0.347807,9.29433 -0.462311,10.91457 -3.056659,6.11331 -4.668642,23.76412 -7.276382,26.37186 -0.450232,0.45024 0.540186,4.73866 0.904523,5.46734 0.947573,1.89514 -0.693471,6.12059 0,6.81407 0.682233,0.68223 0.242389,2.49364 0.924623,3.17588 0.621089,0.62109 3.459312,-0.15878 4.080402,0.46231 0.24621,0.24621 3.481825,2.44782 4.100502,1.82915 0.512656,-0.51266 -1.403381,-6.42487 -1.829145,-7.27639 -0.366762,-0.73353 0.987677,-14.1937 1.366834,-14.57286 0.530627,-0.53062 -0.530628,-2.64526 0,-3.17588 1.033243,-1.03324 2.271356,-22.44299 2.271356,-25.46734 0,-0.51046 1.304865,-3.70017 0.462315,-4.54271 -0.005,-0.005 -0.753601,-1.72498 -1.768847,-3.39699 1.499367,0.11135 2.764427,0.29207 3.135677,0.66332 0.66753,0.66752 14.12429,0 16.36181,0 8.88568,0 22.86429,-0.68843 28.20101,-1.82915 2.12739,-0.45472 7.17261,-0.85264 10.01005,-2.27135 1.64711,-0.82356 7.44853,-1.38698 8.46231,-1.64824 2.16635,-0.55831 9.12797,-2.23351 11.07537,-4.18091 1.44431,-1.44431 6.38283,-6.44769 8.20101,-7.35678 2.04979,-1.0249 3.07916,-4.66567 4.28141,-6.35176 0.15431,-1.2483 3.51379,-4.5101 2.85427,-5.82915 -0.74842,-3.04571 -1.21621,-6.19443 -2.41206,-6.31155 l -3e-5,3e-5 z"
       id="path16"
       inkscape:connector-curvature="0"
       style="fill:#e6b35a;stroke:#ffffff;stroke-opacity:0" />
  </g>
</svg>
